<?xml version="1.0" encoding="UTF-8"?>
<svg width="384px" height="512px" viewBox="0 0 384 512" version="1.1" xmlns="http://www.w3.org/2000/svg" xmlns:xlink="http://www.w3.org/1999/xlink">
    <!-- Generator: Sketch 51.1 (57501) - http://www.bohemiancoding.com/sketch -->
    <title>ceasefire</title>
    <desc>Created with Sketch.</desc>
    <defs></defs>
    <g id="Page-1" stroke="none" stroke-width="1" fill="none" fill-rule="evenodd">
        <g id="ceasefire" fill="#FFFFFF" fill-rule="nonzero">
            <path d="M255.98,160 L255.98,16 C255.98,7.16 248.82,0 239.98,0 L207.98,0 C199.14,0 191.98,7.16 191.98,16 L191.98,162.93 C197,161.15 202.32,160 207.95,160 L255.98,160 Z M383.98,255.99 C383.97,220.65 355.32,192 319.99,192 L207.85,192 C199.07,192 191.95,199.07 191.95,207.85 L191.95,208.41 C191.95,234.68 213.25,256 239.52,256 L274.78,256 C284.46,256 287.98,259.58 287.98,264 L287.98,280.2 C287.98,284.49 284.39,287.98 280.1,288.2 C235.58,290.48 215.94,312.91 184.05,360.75 L177.74,370.22 C176.564361,371.985744 174.735102,373.211807 172.655053,373.628192 C170.575004,374.044577 168.414746,373.617137 166.65,372.44 L153.34,363.56 C151.574256,362.384361 150.348193,360.555102 149.931808,358.475053 C149.515423,356.395004 149.942863,354.234746 151.12,352.47 L157.43,343 C173.16,319.4 187.63,299.74 204.74,284.92 C187.47,279.41 173.34,266.8 165.87,250.47 C159.28,253.88 151.91,255.99 144,255.99 L112,255.99 C99.66,255.99 88.51,251.18 80,243.51 C71.48,251.19 60.33,256 48,256 L16,256 C10.36,256 5.03,254.85 0,253.05 L0,330.98 C0,364.93 13.48,397.48 37.49,421.49 L63.99,448 L63.99,512 L319.97,512 L319.97,448.04 L355.88,412.12 C373.887858,394.107899 384.002918,369.679957 384,344.21 L383.98,255.99 Z M351.97,165.9 L351.97,48 C351.97,39.16 344.81,32 335.97,32 L303.97,32 C295.13,32 287.97,39.16 287.97,48 L287.97,160 L319.97,160 C331.25,160 341.91,162.31 351.97,165.9 Z M16,224 L48,224 C56.84,224 64,216.84 64,208 L64,80 C64,71.16 56.84,64 48,64 L16,64 C7.16,64 0,71.16 0,80 L0,208 C0,216.84 7.16,224 16,224 Z M111.99,224 L143.99,224 C152.83,224 159.99,216.84 159.99,208 L159.99,48 C159.99,39.16 152.83,32 143.99,32 L111.99,32 C103.15,32 95.99,39.16 95.99,48 L95.99,208 C95.99,216.84 103.15,224 111.99,224 Z" id="Shape"></path>
        </g>
    </g>
</svg>