<?xml version="1.0" encoding="UTF-8"?>
<svg width="438px" height="449px" viewBox="0 0 438 449" version="1.1" xmlns="http://www.w3.org/2000/svg" xmlns:xlink="http://www.w3.org/1999/xlink">
    <!-- Generator: Sketch 51.1 (57501) - http://www.bohemiancoding.com/sketch -->
    <title>arrow-down-solid</title>
    <desc>Created with Sketch.</desc>
    <defs></defs>
    <g id="Page-1" stroke="none" stroke-width="1" fill="none" fill-rule="evenodd">
        <g id="arrow-down-solid" fill="#FFFFFF" fill-rule="nonzero">
            <path d="M408.1,190.5 L430.3,212.7 C439.7,222.1 439.7,237.3 430.3,246.6 L236,441 C226.6,450.4 211.4,450.4 202.1,441 L7.7,246.6 C-1.7,237.2 -1.7,222 7.7,212.7 L29.9,190.5 C39.4,181 54.9,181.2 64.2,190.9 L179,311.4 L179,24 C179,10.7 189.7,0 203,0 L235,0 C248.3,0 259,10.7 259,24 L259,311.4 L373.8,190.9 C383.1,181.1 398.6,180.9 408.1,190.5 Z" id="Shape"></path>
        </g>
    </g>
</svg>