<?xml version="1.0" encoding="UTF-8"?>
<svg width="641px" height="385px" viewBox="0 0 641 385" version="1.1" xmlns="http://www.w3.org/2000/svg" xmlns:xlink="http://www.w3.org/1999/xlink">
    <!-- Generator: Sketch 51.1 (57501) - http://www.bohemiancoding.com/sketch -->
    <title>substantive-partial</title>
    <desc>Created with Sketch.</desc>
    <defs></defs>
    <g id="Page-1" stroke="none" stroke-width="1" fill="none" fill-rule="evenodd">
        <g id="substantive-partial" transform="translate(0.125000, 0.593750)" fill="#FFFFFF" fill-rule="nonzero">
            <path d="M519.2,63.9 L471.6,16.3 C461.065283,5.85821611 446.832771,-0.000115861486 432,0 L205.2,0 C190.4,0 176.1,5.9 165.6,16.3 L118,63.9 L0,63.9 L0,319.6 L64,319.6 C81.6,319.6 95.8,305.4 95.9,287.9 L105,287.9 L189.6,364.3 C220.5,389.4 263.4,390 295.2,368.1 C307.7,378.9 321.2,384 336.3,384 C354.5,384 371.6,376.6 385.1,360 C407.2,368.7 433.3,362.6 449.1,343.2 L475.3,310.9 C480.9,304 484.4,296.1 486.2,287.9 L544.1,287.9 C544.2,305.4 558.5,319.6 576,319.6 L640,319.6 L640,63.9 L519.2,63.9 Z M48,287.6 C39.2,287.6 32,280.4 32,271.6 C32,262.8 39.2,255.6 48,255.6 C56.8,255.6 64,262.8 64,271.6 C64,280.5 56.8,287.6 48,287.6 Z M438,280.7 L411.9,312.9 C409.1,316.3 404.1,316.9 400.6,314.1 L376.7,294.7 L346.7,331.2 C340.7,338.5 331.7,336 328.7,333.6 L291.9,302.1 L276.3,321.3 C262.4,338.4 237.1,341 221,327.9 L123.7,239.9 L96,239.9 L96,111.8 L137.9,111.8 L199.6,50.2 C201.6,49.4 203.3,48.7 205.3,47.9 L262,47.9 L223.3,83.4 C193.9,110.3 192.2,155.7 218.9,184.7 C233.7,200.9 280.1,225.9 320.4,189.1 L328.6,181.6 L436.8,269.4 C440.2,272.2 440.7,277.3 438,280.7 Z M544,239.9 L474.8,239.9 C472.5,237.1 469.9,234.5 467.1,232.2 L364.4,148.8 L376.9,137.4 C383.4,131.4 383.9,121.3 377.9,114.8 L367,103.1 C361,96.6 350.9,96.2 344.4,102.1 L289.2,152.7 C279.7,161.4 263.5,162.1 254.6,152.7 C245.3,142.8 246.1,127.6 255.8,118.8 L321.4,58.7 C328.8,51.9 338.4,48.2 348.4,48.2 L432.1,48 C434.2,48 436.2,48.8 437.6,50.3 L499.3,111.9 L544,111.9 L544,239.9 Z M592,287.6 C583.2,287.6 576,280.4 576,271.6 C576,262.8 583.2,255.6 592,255.6 C600.8,255.6 608,262.8 608,271.6 C608,280.5 600.8,287.6 592,287.6 Z" id="Shape"></path>
        </g>
    </g>
</svg>